<?xml version="1.0" standalone="no"?><!DOCTYPE svg PUBLIC "-//W3C//DTD SVG 1.1//EN" "http://www.w3.org/Graphics/SVG/1.1/DTD/svg11.dtd"><svg t="1603702866489" class="icon" viewBox="0 0 1024 1024" version="1.1" xmlns="http://www.w3.org/2000/svg" p-id="2340" xmlns:xlink="http://www.w3.org/1999/xlink" width="64" height="64"><defs><style type="text/css"></style></defs><path d="M773.99 460.03C784.41 370.36 757.78 268 757.78 268s-64.66 17.85-126.92 52.81c-36.76-61.97-83.99-110.36-83.99-110.36s-47.23 48.38-83.99 110.36C400.61 285.85 335.95 268 335.95 268s-25.58 98.25-16.83 186.54c-68.74-25.96-128.79-27.38-128.79-27.38s23.78 130.9 120.49 213.51c42.17 36.02 85.49 63.61 123.46 80.37-37.51 7.16-61.34 17.69-61.34 29.47 0 21.56 79.44 39.03 177.42 39.03 97.99 0 177.42-17.48 177.42-39.03 0-10.49-18.89-19.98-49.47-27 38.13-17.53 81.7-46.49 123.89-84.27 94.75-84.85 115.48-216.27 115.48-216.27s-69.42 3.25-143.69 37.06z" fill="#FFBBA6" p-id="2341"></path><path d="M462.86 676c-37.98 0-73.33-22.03-99.52-62.04-25.17-38.44-39.02-89.32-39.02-143.26 0-46.76 22.01-102.27 65.41-164.99 31.85-46.02 63.24-78.3 64.56-79.65a11.998 11.998 0 0 1 17.16 0c1.32 1.35 32.71 33.63 64.56 79.65 43.4 62.72 65.41 118.23 65.41 164.99 0 53.94-13.86 104.82-39.03 143.26-26.2 40.01-61.54 62.04-99.53 62.04z m0.01-423.91c-27.96 30.99-114.55 133.84-114.55 218.61 0 49.32 12.47 95.53 35.1 130.11 21.61 33.01 49.82 51.19 79.44 51.19s57.83-18.18 79.44-51.19c22.64-34.58 35.1-80.79 35.1-130.11 0.01-84.87-86.57-187.64-114.53-218.61zM466.36 825.55c-48.23 0-93.7-4.16-128.04-11.71-41.31-9.09-61.39-21.95-61.39-39.32s20.08-30.23 61.39-39.32c34.33-7.55 79.8-11.71 128.04-11.71 48.23 0 93.7 4.16 128.03 11.71 41.31 9.09 61.39 21.95 61.39 39.32s-20.08 30.23-61.39 39.32c-34.33 7.55-79.8 11.71-128.03 11.71z m-164.8-51.03c3.32 3.41 16 10.83 48.55 17.26 31.85 6.3 73.14 9.77 116.26 9.77s84.4-3.47 116.26-9.77c32.54-6.44 45.22-13.86 48.55-17.26-3.32-3.41-16-10.83-48.55-17.26-31.85-6.3-73.14-9.77-116.26-9.77s-84.4 3.47-116.26 9.77c-32.55 6.43-45.23 13.85-48.55 17.26z m330.42 1.05z" fill="#9E1919" p-id="2342"></path><path d="M420.97 775.38c-16.6 0-36.33-4.12-58.54-12.41-44.67-16.66-95.6-48.33-143.41-89.17-51.75-44.21-82.83-101.74-99.78-142.22-18.33-43.75-24.47-76.88-24.72-78.27-0.64-3.55 0.34-7.2 2.68-9.94 2.34-2.74 5.77-4.3 9.4-4.2 1.41 0.03 35.09 0.92 81.17 12.19 42.63 10.43 104.31 32.14 156.06 76.34 47.81 40.84 87.05 86.2 110.48 127.72 25.42 45.04 29.45 81.52 11.34 102.71-9.8 11.48-25.06 17.25-44.68 17.25zM121.68 464.29c3.47 13.36 9.75 34.38 19.94 58.59 15.94 37.9 45.01 91.68 92.99 132.67 45.73 39.07 94.1 69.23 136.21 84.93 37.21 13.88 65.83 14.64 76.58 2.06s5.52-40.74-14-75.32c-22.08-39.14-59.43-82.2-105.16-121.27-73.31-62.63-169.37-77.98-206.56-81.66z" fill="#9E1919" p-id="2343"></path><path d="M524.37 778.57c-8.49 0-16.19-1.16-22.91-3.47-7.97-2.73-14.65-7.05-19.84-12.85-5.19-5.8-8.76-12.91-10.59-21.14-1.65-7.41-1.89-15.77-0.72-24.86 1.09-8.42 3.41-17.61 6.9-27.33 3.36-9.36 7.86-19.32 13.36-29.62 5.43-10.17 11.9-20.77 19.22-31.5 7.35-10.77 15.63-21.78 24.61-32.72 9.12-11.11 19.07-22.28 29.56-33.19a636.768 636.768 0 0 1 34.08-32.86c11.75-10.52 24.68-20.41 38.43-29.38 12.46-8.13 25.88-15.7 39.88-22.49 12.5-6.06 25.71-11.63 39.27-16.55 11.85-4.3 24.18-8.18 36.66-11.54a472.93 472.93 0 0 1 32.06-7.45c8.59-1.68 17.17-3.11 25.49-4.25 5.96-0.81 11.66-1.46 16.93-1.92 4.02-0.35 6.29-0.46 6.39-0.46 3.61-0.16 7.09 1.29 9.49 3.98 2.41 2.69 3.48 6.31 2.92 9.87-0.02 0.09-0.37 2.34-1.16 6.3-1.02 5.1-2.32 10.85-3.77 16.61-1.61 6.43-8.12 10.33-14.56 8.72-6.43-1.61-10.33-8.13-8.72-14.56 0.49-1.95 0.93-3.79 1.33-5.49-1.73 0.21-3.6 0.45-5.6 0.72-7.87 1.07-15.98 2.43-24.12 4.02-10.18 2-20.42 4.37-30.43 7.07-11.82 3.19-23.5 6.86-34.72 10.93-12.79 4.64-25.23 9.88-36.98 15.58-13.09 6.35-25.62 13.42-37.24 21-12.73 8.31-24.69 17.45-35.54 27.16a611.485 611.485 0 0 0-32.79 31.61c-10.06 10.46-19.59 21.16-28.31 31.78-8.53 10.4-16.38 20.83-23.33 31.02-6.83 10.01-12.84 19.86-17.87 29.27-4.95 9.28-8.97 18.17-11.94 26.44-2.91 8.08-4.82 15.58-5.68 22.28-0.82 6.31-0.7 11.89 0.34 16.56 0.94 4.23 2.59 7.61 5.04 10.35 2.45 2.74 5.64 4.75 9.73 6.15 4.53 1.55 10.06 2.28 16.42 2.16 6.76-0.12 14.42-1.2 22.77-3.2 8.54-2.05 17.83-5.06 27.59-8.96 9.9-3.96 20.35-8.85 31.06-14.54 10.88-5.78 22.11-12.44 33.4-19.78 11.52-7.5 23.2-15.79 34.7-24.64a611.026 611.026 0 0 0 35.03-29.12c10.84-9.71 21.24-20.59 30.9-32.34 8.81-10.71 17.21-22.39 24.96-34.7 6.96-11.05 13.53-22.84 19.55-35.04a432.17 432.17 0 0 0 14.68-33.31c2.42-6.17 9.38-9.21 15.55-6.8 6.17 2.42 9.21 9.38 6.79 15.55-4.72 12.04-9.93 23.87-15.5 35.17-6.38 12.95-13.37 25.47-20.77 37.21-8.29 13.17-17.29 25.67-26.74 37.16-10.44 12.69-21.68 24.45-33.43 34.97-11.86 10.62-24.11 20.81-36.4 30.26-12 9.23-24.2 17.89-36.24 25.73-11.88 7.73-23.73 14.75-35.23 20.86-11.47 6.09-22.71 11.36-33.42 15.63-10.84 4.33-21.24 7.7-30.91 10.02-10.04 2.4-19.43 3.7-27.92 3.85-0.57 0.07-1.15 0.07-1.71 0.07z" fill="#9E1919" p-id="2344"></path><path d="M417.24 688.04c-10.8 0-22.01-1.53-33.47-4.6-51.53-13.81-102.32-57.35-135.84-116.49-22.96-40.5-31.16-99.77-24.37-176.17 4.98-56.05 16.31-99.97 16.79-101.81a12 12 0 0 1 14.8-8.55c1.81 0.5 44.87 12.47 95.07 36.13 68.43 32.25 114.78 69.16 137.77 109.7 26.49 46.72 39.47 97.83 36.55 143.92-3.03 47.89-22.78 84.89-55.59 104.18-15.47 9.09-32.98 13.69-51.71 13.69zM260.72 307.2c-8.96 40.84-33.62 174.37 8.08 247.91 30.42 53.66 75.72 92.96 121.18 105.14 24.98 6.69 48.08 4.41 66.81-6.6 25.73-15.13 41.29-45.32 43.8-85.01 2.63-41.49-9.26-87.86-33.48-130.57-41.63-73.42-167.01-118.3-206.39-130.87z" fill="#9E1919" p-id="2345"></path><path d="M508.55 688.02c-8.39 0-16.58-0.92-24.4-2.75a97.8 97.8 0 0 1-27.36-10.92c-8.47-4.98-16.19-11.25-22.94-18.64-6.51-7.12-12.18-15.35-16.86-24.46-4.52-8.81-8.16-18.53-10.82-28.88-2.59-10.12-4.27-20.96-4.98-32.2-0.71-11.14-0.47-22.77 0.7-34.58 1.17-11.85 3.3-24 6.31-36.1 3.06-12.28 7.08-24.64 11.94-36.74 4.98-12.39 10.9-24.67 17.6-36.5 6.74-11.89 15.67-23.65 26.53-34.96 9.71-10.11 21.19-20.09 34.13-29.67 11.46-8.49 24.32-16.84 38.21-24.83 12.08-6.95 25.18-13.76 38.91-20.23a657.39 657.39 0 0 1 36.25-15.73 704.54 704.54 0 0 1 30.2-11.27c7.2-2.5 14.18-4.79 20.75-6.8 4.95-1.52 7.76-2.3 7.88-2.33a12 12 0 0 1 14.8 8.55c0.03 0.12 0.77 2.98 1.96 8.09 1.57 6.8 3.11 14.09 4.58 21.68 1.26 6.51-2.99 12.8-9.49 14.07-6.52 1.26-12.8-2.99-14.07-9.49-1.24-6.4-2.4-11.89-3.34-16.14-4.05 1.29-9.23 2.98-15.19 5.05-9.73 3.38-19.54 7.04-29.16 10.88-12.01 4.8-23.76 9.89-34.92 15.15-13.14 6.19-25.65 12.69-37.17 19.32-13.09 7.53-25.17 15.38-35.9 23.32-11.86 8.78-22.33 17.87-31.1 27.01-9.48 9.87-17.2 20.02-22.96 30.17a277.744 277.744 0 0 0-16.2 33.6c-4.45 11.09-8.12 22.4-10.92 33.61-2.74 10.97-4.66 21.96-5.72 32.65-1.04 10.53-1.25 20.86-0.63 30.7 0.62 9.75 2.06 19.08 4.28 27.76 2.21 8.63 5.21 16.66 8.92 23.88 3.71 7.21 8.15 13.69 13.23 19.24 5.13 5.62 10.98 10.37 17.38 14.14 6.39 3.76 13.35 6.53 20.67 8.25 7.22 1.69 14.91 2.38 22.86 2.04 7.95-0.34 16.24-1.7 24.64-4.05 8.45-2.37 17.08-5.76 25.65-10.07 8.66-4.36 17.32-9.7 25.73-15.87 8.55-6.27 16.92-13.45 24.87-21.34 8.13-8.07 15.91-16.96 23.1-26.42 7.41-9.73 14.29-20.19 20.47-31.08 5.76-10.16 10.54-22.06 14.19-35.37 3.39-12.33 5.89-26.12 7.42-40.99 1.39-13.45 2.03-28.04 1.88-43.37-0.13-13.5-0.85-27.79-2.16-42.48-0.59-6.6 4.29-12.43 10.89-13.02 6.62-0.58 12.43 4.29 13.02 10.89 1.36 15.32 2.12 30.25 2.25 44.39 0.15 16.22-0.53 31.72-2.01 46.06-1.67 16.18-4.42 31.28-8.16 44.88-4.18 15.22-9.72 28.96-16.46 40.84-6.71 11.83-14.19 23.19-22.24 33.78-7.87 10.34-16.38 20.07-25.3 28.92-8.79 8.72-18.07 16.68-27.58 23.65-9.48 6.95-19.28 12.99-29.13 17.95-9.95 5.01-20.03 8.96-29.97 11.74-10.17 2.85-20.3 4.51-30.09 4.92-1.68 0.07-3.33 0.1-4.97 0.1z" fill="#9E1919" p-id="2346"></path><path d="M632.73 595.09c0 90.9-71.16 173.07-164.59 173.07s-173.73-82.17-173.73-173.07 169.16-225.16 169.16-225.16 169.16 134.26 169.16 225.16z" fill="#FFFFFF" p-id="2347"></path><path d="M468.15 780.16c-98.94 0-185.73-86.48-185.73-185.07 0-40.86 29.55-92.97 87.84-154.89 42.4-45.04 84.1-78.28 85.86-79.67a11.993 11.993 0 0 1 14.92 0c1.75 1.39 43.46 34.62 85.86 79.67 58.29 61.92 87.84 114.04 87.84 154.89 0 47.12-18.39 94.05-50.44 128.76-33.55 36.31-78.34 56.31-126.15 56.31z m-4.57-394.71c-13.9 11.6-45.15 38.56-76.03 71.4-53.07 56.43-81.13 104.23-81.13 138.24 0 85.8 75.57 161.07 161.73 161.07 82.71 0 152.59-73.76 152.59-161.07 0-34.01-28.05-81.81-81.13-138.24-30.89-32.84-62.13-59.81-76.03-71.4z" fill="#9E1919" p-id="2348"></path><path d="M503.24 422.51S354.42 540.56 354.42 620.48c0 35.04 13.59 68.6 35.77 95.25 26.54 22.09 60.15 35.82 95.96 35.82 82.19 0 144.8-72.25 144.8-152.17 0-41.54-40.2-93.35-78.81-133.56-26.99-25.92-48.9-43.31-48.9-43.31z" fill="#FFBBA6" p-id="2349"></path></svg>