<?xml version="1.0" standalone="no"?><!DOCTYPE svg PUBLIC "-//W3C//DTD SVG 1.1//EN" "http://www.w3.org/Graphics/SVG/1.1/DTD/svg11.dtd"><svg t="1603702829488" class="icon" viewBox="0 0 1024 1024" version="1.1" xmlns="http://www.w3.org/2000/svg" p-id="2070" width="64" height="64" xmlns:xlink="http://www.w3.org/1999/xlink"><defs><style type="text/css"></style></defs><path d="M684.544 305.152c3.584 11.776 19.456 68.096 10.752 138.24-1.024 7.168-2.048 14.848-3.584 22.528 2.048-1.024 3.584-2.048 5.632-3.072 1.024-6.144 2.048-12.8 2.56-18.432 9.728-79.872-11.776-142.336-11.776-142.848l-1.024-2.56-2.56 0.512c-41.984 12.8-78.336 28.672-108.032 46.592 0.512 1.536 1.536 3.072 2.048 4.608 30.208-17.408 65.024-32.768 105.984-45.568zM653.824 568.32v10.24c23.552-38.4 36.352-75.776 43.008-109.568-2.048 1.024-4.096 2.048-5.632 3.072-6.656 30.208-17.92 62.976-37.376 96.256z" fill="#ED1C24" p-id="2071"></path><path d="M816.64 430.08c-46.08 3.072-85.504 14.848-118.784 32.768-0.512 2.048-1.024 4.096-1.024 6.656 32.768-17.92 71.168-30.208 116.224-33.792-9.728 26.624-73.216 189.44-195.584 243.712 3.072 0.512 5.632 1.024 8.704 1.536 130.048-62.976 192.512-245.248 193.536-247.296l1.024-3.584h-4.096zM533.504 701.44h1.536c29.696 0 57.344-6.656 82.432-17.408l-9.216-1.536c-19.456 7.68-40.448 12.288-62.976 13.824-3.584 2.048-7.68 3.584-11.776 5.12z" fill="#ED1C24" p-id="2072"></path><path d="M690.688 472.576c2.048-1.024 4.096-2.048 5.632-3.072 0.512-2.048 1.024-4.096 1.024-6.656-2.048 1.024-4.096 2.048-5.632 3.072 0 2.048-0.512 4.096-1.024 6.656zM403.968 483.328c1.536-2.048 3.584-4.096 5.12-6.656 0.512-40.448 11.776-81.408 33.28-123.392-1.536-1.024-3.072-2.048-4.608-2.56-23.04 45.056-34.304 89.088-33.792 132.608zM601.6 461.824c2.048 2.048 3.584 4.096 5.632 6.144-1.024-33.792-8.192-64-16.896-88.576-3.584-9.728-7.168-19.456-11.264-28.16-1.536 1.024-3.072 2.048-4.608 2.56 4.096 8.704 7.68 17.92 10.752 27.136 8.704 23.04 14.848 50.176 16.384 80.896zM509.44 257.024c7.68 7.68 38.912 40.96 62.976 91.648 1.536-1.024 3.072-2.048 4.608-2.56-28.16-59.392-65.536-94.208-66.048-94.72l-2.048-1.536-1.536 2.048c-28.16 31.744-50.688 63.488-67.072 94.72 1.536 1.024 3.072 1.536 4.608 2.56 15.872-30.72 37.376-60.928 64.512-92.16z" fill="#ED1C24" p-id="2073"></path><path d="M574.976 353.792c1.536-1.024 3.072-2.048 4.608-2.56-0.512-1.536-1.536-3.072-2.048-4.608-1.536 1.024-3.072 2.048-4.608 2.56 0.512 1.536 1.024 3.072 2.048 4.608zM332.288 307.712c11.264 2.56 57.856 14.336 105.472 43.008 0.512-1.536 1.536-3.072 2.56-4.608C385.024 313.344 331.776 302.08 330.752 302.08l-2.56-0.512-0.512 2.56c-10.24 60.928-10.24 112.64-3.072 156.672 2.048 1.024 3.584 1.536 5.632 2.56-7.168-43.008-8.192-94.72 2.048-155.648zM366.592 566.784c-14.848-26.112-27.648-58.368-34.816-96.768-2.048-1.024-3.584-2.048-5.632-3.072 8.192 44.544 23.04 80.896 40.448 109.568-0.512-3.072-0.512-6.144 0-9.728zM442.368 353.792c0.512-1.536 1.536-3.072 2.56-4.608-1.536-1.024-3.072-2.048-4.608-2.56-1.024 1.536-1.536 3.072-2.56 4.608 1.536 0.512 3.072 1.536 4.608 2.56zM525.312 702.976l-0.512 0.512h3.072v-0.512h-2.56c0.512 0 0 0 0 0zM522.24 702.464s-0.512 0 0 0c-5.12-1.536-11.776-3.072-19.968-5.632-27.136-2.56-51.712-7.68-73.728-14.848-3.584 0.512-7.168 1.024-10.24 2.048 30.208 10.752 65.536 17.92 104.96 19.456l-1.024-1.024z" fill="#ED1C24" p-id="2074"></path><path d="M272.384 567.296C233.472 513.024 218.624 458.24 215.552 445.44c40.96-2.56 77.312 6.144 110.08 22.016-0.512-2.048-0.512-4.096-1.024-6.144-33.28-15.36-70.656-23.552-112.128-20.48h-3.072l0.512 3.072c0 0.512 13.312 63.488 57.856 126.976 28.16 39.424 72.704 83.968 140.288 110.592 3.072-0.512 6.144-1.536 9.216-2.048-70.144-26.112-116.224-71.68-144.896-112.128zM525.824 702.976c-1.024 0-2.56-0.512-4.096-1.024l0.512 0.512 0.512 1.024h2.048l1.024-0.512c-0.512 0 0 0 0 0z" fill="#ED1C24" p-id="2075"></path><path d="M331.264 470.016c-0.512-2.048-0.512-4.096-1.024-6.144-2.048-1.024-3.584-2.048-5.632-2.56 0.512 2.048 0.512 4.096 1.024 6.144 2.048 0.512 4.096 1.536 5.632 2.56zM541.696 692.736c-2.048 1.536-4.096 2.56-5.632 4.096 3.584 0 6.656 0 10.24-0.512 11.776-5.632 23.04-11.264 32.768-17.408-3.072-0.512-5.632-0.512-8.704-1.024-9.216 5.12-18.432 10.24-28.672 14.848zM527.36 701.952l0.512 1.536H529.408l0.512-0.512c1.024-0.512 2.56-1.024 3.584-1.536h-5.632l-0.512 0.512zM633.344 515.584c10.24 19.968 16.384 40.448 15.36 61.44 2.048-3.072 3.584-5.632 5.12-8.704-0.512-19.456-6.656-38.4-16.384-56.832-1.536 1.536-3.072 2.56-4.096 4.096zM577.536 673.28c2.56 0.512 5.632 0.512 8.192 1.024 41.984-27.136 65.024-58.88 67.584-94.72v-1.024c-2.048 3.072-4.096 6.656-6.656 9.728-5.632 32.256-28.672 60.416-69.12 84.992zM391.168 510.976c-1.536-1.024-2.56-2.048-4.096-3.584-12.288 20.992-19.456 40.96-20.992 59.392 1.536 2.56 3.072 5.632 5.12 8.192 0-19.968 6.656-41.472 19.968-64zM373.76 593.408c-0.512-2.56-1.024-4.608-1.536-7.168l-6.144-9.216c0 6.144 1.024 12.288 2.56 17.92 9.216 37.376 41.984 63.488 75.776 80.384 3.584-0.512 6.656-1.024 10.24-1.024-35.328-16.896-71.68-43.008-80.896-80.896zM602.112 470.528c0-3.072 0-6.144-0.512-8.704-27.648-31.232-59.392-55.808-77.312-68.096-1.024 1.024-2.56 2.56-3.584 4.096 18.432 12.8 52.736 39.424 81.408 72.704zM488.96 687.616c-7.68-2.56-16.384-5.632-25.088-9.728-3.584 0.512-7.68 0.512-11.264 1.024 17.92 8.192 35.328 13.824 49.152 17.92 3.584 0.512 7.68 0.512 11.264 1.024-5.632-2.048-13.824-5.632-24.064-10.24zM509.44 389.632c1.536 1.024 4.096 2.56 7.168 4.608 1.024-1.536 2.56-2.56 3.584-4.096-5.12-3.584-8.704-5.632-9.216-6.144l-1.536-1.024-1.536 1.024c-3.072 2.56-6.144 4.608-9.216 7.168l3.584 3.584c2.048-1.024 4.608-3.072 7.168-5.12zM403.968 491.52v-8.192c-5.12 6.656-9.728 13.312-13.824 19.968 1.536 1.024 2.56 2.048 4.096 3.072 2.56-4.608 6.144-9.728 9.728-14.848zM409.088 484.864c20.992-27.136 50.688-55.808 89.088-86.528l-3.584-3.584C458.24 423.424 430.08 450.56 409.088 476.672v8.192zM630.784 510.976c1.536-1.024 2.56-2.56 4.096-3.584-7.68-13.824-17.408-26.624-27.648-38.912v8.704c9.216 10.24 16.896 22.016 23.552 33.792zM527.36 701.952l0.512-0.512c-0.512 0-0.512 0-0.512 0.512zM535.552 696.32c2.048-1.536 4.096-2.56 5.632-4.096-3.072 1.536-5.632 2.56-8.704 4.096h3.072z" fill="#ED1C24" p-id="2076"></path><path d="M648.192 579.584c0 3.072-0.512 6.144-1.024 9.216 2.048-3.584 4.608-6.656 6.656-9.728 0-3.584 0.512-6.656 0-10.24-1.536 3.072-3.584 5.632-5.12 8.704-0.512 0.512-0.512 1.024-0.512 2.048zM520.704 397.312c1.024-1.536 2.56-2.56 3.584-4.096-1.536-1.024-3.072-2.048-4.096-3.072-1.024 1.024-2.56 2.56-3.584 4.096 1.536 1.024 2.56 2.048 4.096 3.072zM633.344 515.584c1.536-1.024 2.56-2.56 4.096-3.584-1.024-1.536-1.536-3.072-2.56-4.608-1.536 1.024-2.56 2.56-4.096 3.584 1.024 1.536 1.536 3.072 2.56 4.608zM535.552 696.32c-2.56 1.536-5.12 3.072-7.68 5.12h5.632c4.096-1.536 8.192-3.584 11.776-5.12h-9.728z" fill="#ED1C24" p-id="2077"></path><path d="M528.896 698.368s-0.512 0 0 0c-1.024 0.512-1.024 1.024-1.536 2.048l-0.512 0.512 0.512 0.512h1.024c2.56-1.536 5.12-3.072 7.68-5.12h-3.072c-1.536 1.024-3.072 1.536-4.096 2.048zM607.744 477.184v-8.704c-2.048-2.048-3.584-4.096-5.632-6.144 0 3.072 0.512 5.632 0.512 8.704 1.536 1.536 3.072 3.584 5.12 6.144zM409.088 484.864v-8.192c-1.536 2.048-3.584 4.096-5.12 6.656V491.52c1.536-2.048 3.584-4.608 5.12-6.656z" fill="#ED1C24" p-id="2078"></path><path d="M527.36 699.904l1.536-1.536h-0.512c-0.512 0.512-1.024 1.024-1.024 1.536zM498.176 398.848c1.536-1.024 2.56-2.048 4.096-3.072l-3.584-3.584c-1.536 1.024-2.56 2.048-4.096 3.072 1.024 1.024 2.56 2.048 3.584 3.584zM371.2 574.976c-1.536-2.56-3.072-5.632-5.12-8.192 0 3.072-0.512 6.656 0 9.728l6.144 9.216c-0.512-3.072-1.024-6.656-1.024-10.752zM518.656 697.856c-1.024-0.512-2.048-1.536-3.072-2.56-7.168-1.536-16.384-4.096-26.624-7.68 9.728 4.608 18.432 8.192 24.576 10.24h5.12c0.512 0 0 0 0 0zM519.168 698.368c0-0.512 0-0.512 0 0-0.512-0.512 0-0.512 0 0zM526.848 700.416z" fill="#ED1C24" p-id="2079"></path><path d="M515.584 695.296c1.024 1.024 2.048 1.536 3.072 2.56-0.512-0.512-1.024-1.024-1.024-2.048-0.512 0-1.024-0.512-2.048-0.512z" fill="#ED1C24" p-id="2080"></path><path d="M519.68 696.32c-0.512 0-1.024-0.512-2.048-0.512 0.512 0.512 1.024 1.536 1.024 2.048l0.512 0.512h1.024c0-0.512-0.512-1.536-0.512-2.048zM527.872 697.856c-0.512 0-1.536-0.512-2.56-0.512 0.512 1.536 1.024 2.56 1.024 2.56v0.512-0.512c1.024-0.512 1.536-1.024 1.536-2.048zM513.536 697.856c-4.096 0-7.68-0.512-11.264-1.024 8.192 2.56 14.848 4.096 19.968 5.12 0-0.512-0.512-1.024-1.024-1.536-2.56-0.512-4.608-1.536-7.68-2.56zM393.728 506.368c-1.024-1.024-2.56-2.048-4.096-3.072-1.024 1.536-2.048 3.072-2.56 4.608 1.536 1.024 2.56 2.048 4.096 3.584 1.024-2.048 2.048-3.584 2.56-5.12zM525.824 702.976c1.024 0 1.536 0.512 2.048 0.512l-0.512-1.536c-0.512 0.512-1.024 0.512-1.536 1.024z" fill="#ED1C24" p-id="2081"></path><path d="M527.36 701.952l-0.512-0.512v0.512h-0.512l-0.512 0.512-1.536-1.024h-2.56v-0.512c-0.512 0-1.024 0-1.024-0.512 0.512 1.024 1.024 1.536 1.024 1.536 1.536 0.512 3.072 0.512 4.096 1.024 0.512-0.512 1.024-0.512 1.536-1.024z" fill="#ED1C24" p-id="2082"></path><path d="M526.336 701.44h0.512l-0.512-0.512v0.512zM521.728 700.416v0.512h2.56c-1.024 0-1.536 0-2.56-0.512zM523.776 701.44l1.536 1.024 0.512-0.512-1.536-0.512zM524.288 701.44s-0.512 0 0 0zM513.536 697.856c3.072 1.024 5.12 2.048 7.168 2.56-0.512-0.512-1.024-1.536-1.536-2.048-2.048-0.512-3.584-0.512-5.632-0.512z" fill="#ED1C24" p-id="2083"></path><path d="M519.68 698.368c-0.512 0-0.512 0 0 0 0 1.024 0.512 1.536 1.024 2.048 0.512 0 1.024 0.512 1.024 0.512v-0.512c-0.512-1.024-1.024-1.536-2.048-2.048zM525.824 701.952l0.512-0.512-0.512 0.512zM523.264 700.928s-0.512-0.512-1.536-1.024v0.512c1.024 0.512 1.536 0.512 1.536 0.512zM526.848 700.416l-0.512 1.024h0.512v-1.024z" fill="#ED1C24" p-id="2084"></path><path d="M522.752 696.832c-1.024 0-2.048-0.512-3.072-0.512 0.512 0.512 0.512 1.536 1.024 2.048h-1.024c1.024 0.512 2.048 1.536 2.56 2.048l0.512-1.536c-0.512-0.512-0.512-1.024 0-2.048zM524.8 701.44l1.024 0.512v-0.512h-1.024zM524.8 697.344z" fill="#ED1C24" p-id="2085"></path><path d="M525.312 697.344h-0.512c-0.512 0-1.536-0.512-2.048-0.512 0 1.024-0.512 1.536-0.512 1.536l-0.512 1.536c1.024 0.512 1.536 1.024 1.536 1.024H526.336l0.512-1.024v-0.512c-0.512 0.512-0.512-0.512-1.536-2.048z" fill="#ED1C24" p-id="2086"></path><path d="M665.6 706.56c0 14.336-60.928 30.72-148.48 30.72s-148.48-16.384-148.48-30.72c0-7.68 18.432-16.384 49.152-22.528-3.072-1.024-6.144-2.048-9.216-3.584-26.624 6.144-45.056 14.848-45.056 25.6 0 23.04 79.36 35.84 153.6 35.84s153.6-12.8 153.6-35.84c0-11.264-17.92-19.968-45.056-25.6-2.56 1.024-5.12 2.56-8.192 3.584 30.208 6.144 48.128 14.848 48.128 22.528z" fill="#ED1C24" p-id="2087"></path><path d="M608.256 682.496l9.216 1.536c2.56-1.024 5.12-2.56 8.192-3.584-2.56-0.512-5.632-1.024-8.704-1.536-2.56 1.536-5.632 2.56-8.704 3.584zM428.032 682.496c-3.584-1.024-6.656-2.048-10.24-3.584-3.072 0.512-6.144 1.024-9.216 2.048 3.072 1.024 6.144 2.56 9.216 3.584 3.072-1.024 6.656-1.536 10.24-2.048zM454.656 673.792c-3.584 0.512-6.656 0.512-10.24 1.024 3.072 1.536 5.632 3.072 8.704 4.096 3.584-0.512 7.168-0.512 11.264-1.024-3.584-1.024-6.656-2.56-9.728-4.096zM569.856 677.888c3.072 0 5.632 0.512 8.704 1.024 2.56-1.536 4.608-3.072 7.168-4.608-2.56-0.512-5.632-0.512-8.192-1.024l-7.68 4.608z" fill="#ED1C24" p-id="2088"></path></svg>